<svg xmlns="http://www.w3.org/2000/svg" viewBox="0 0 960 360" role="img" aria-label="Airy Ai(x)">
<rect width="100%" height="100%" fill="white"/>
<text x="48" y="28" font-family="system-ui, sans-serif" font-size="20" fill="#111827">Airy Ai(x)</text>
<line x1="48" y1="194.6" x2="912" y2="194.6" stroke="#808080" stroke-width="1"/>
<line x1="480.0" y1="48" x2="480.0" y2="312" stroke="#808080" stroke-width="1"/>
<path d="M 48.0 288.61 L 50.16 290.06 L 52.32 291.41 L 54.48 292.66 L 56.64 293.81 L 58.8 294.85 L 60.96 295.79 L 63.12 296.62 L 65.28 297.35 L 67.44 297.97 L 69.6 298.48 L 71.76 298.89 L 73.92 299.19 L 76.08 299.39 L 78.24 299.48 L 80.4 299.47 L 82.56 299.36 L 84.72 299.14 L 86.88 298.82 L 89.04 298.39 L 91.2 297.87 L 93.36 297.25 L 95.52 296.52 L 97.68 295.71 L 99.84 294.79 L 102.0 293.78 L 104.16 292.68 L 106.32 291.49 L 108.48 290.2 L 110.64 288.83 L 112.8 287.37 L 114.96 285.83 L 117.12 284.2 L 119.28 282.5 L 121.44 280.71 L 123.6 278.85 L 125.76 276.92 L 127.92 274.91 L 130.08 272.83 L 132.24 270.68 L 134.4 268.47 L 136.56 266.2 L 138.72 263.86 L 140.88 261.47 L 143.04 259.02 L 145.2 256.51 L 147.36 253.95 L 149.52 251.35 L 151.68 248.7 L 153.84 246.0 L 156.0 243.26 L 158.16 240.49 L 160.32 237.67 L 162.48 234.83 L 164.64 231.95 L 166.8 229.04 L 168.96 226.1 L 171.12 223.14 L 173.28 220.16 L 175.44 217.16 L 177.6 214.14 L 179.76 211.11 L 181.92 208.07 L 184.08 205.01 L 186.24 201.95 L 188.4 198.88 L 190.56 195.81 L 192.72 192.74 L 194.88 189.67 L 197.04 186.6 L 199.2 183.54 L 201.36 180.49 L 203.52 177.44 L 205.68 174.41 L 207.84 171.39 L 210.0 168.39 L 212.16 165.41 L 214.32 162.44 L 216.48 159.5 L 218.64 156.58 L 220.8 153.68 L 222.96 150.81 L 225.12 147.97 L 227.28 145.15 L 229.44 142.37 L 231.6 139.62 L 233.76 136.9 L 235.92 134.22 L 238.08 131.58 L 240.24 128.97 L 242.4 126.41 L 244.56 123.88 L 246.72 121.39 L 248.88 118.95 L 251.04 116.55 L 253.2 114.2 L 255.36 111.89 L 257.52 109.62 L 259.68 107.4 L 261.84 105.23 L 264.0 103.11 L 266.16 101.04 L 268.32 99.02 L 270.48 97.05 L 272.64 95.12 L 274.8 93.25 L 276.96 91.44 L 279.12 89.67 L 281.28 87.95 L 283.44 86.29 L 285.6 84.68 L 287.76 83.13 L 289.92 81.62 L 292.08 80.17 L 294.24 78.78 L 296.4 77.43 L 298.56 76.14 L 300.72 74.91 L 302.88 73.73 L 305.04 72.6 L 307.2 71.52 L 309.36 70.49 L 311.52 69.52 L 313.68 68.6 L 315.84 67.74 L 318.0 66.92 L 320.16 66.16 L 322.32 65.44 L 324.48 64.78 L 326.64 64.17 L 328.8 63.6 L 330.96 63.09 L 333.12 62.62 L 335.28 62.21 L 337.44 61.84 L 339.6 61.51 L 341.76 61.24 L 343.92 61.01 L 346.08 60.82 L 348.24 60.68 L 350.4 60.58 L 352.56 60.53 L 354.72 60.52 L 356.88 60.55 L 359.04 60.62 L 361.2 60.73 L 363.36 60.88 L 365.52 61.07 L 367.68 61.29 L 369.84 61.56 L 372.0 61.86 L 374.16 62.19 L 376.32 62.57 L 378.48 62.97 L 380.64 63.41 L 382.8 63.88 L 384.96 64.38 L 387.12 64.91 L 389.28 65.48 L 391.44 66.07 L 393.6 66.69 L 395.76 67.33 L 397.92 68.01 L 400.08 68.71 L 402.24 69.43 L 404.4 70.18 L 406.56 70.95 L 408.72 71.75 L 410.88 72.56 L 413.04 73.4 L 415.2 74.26 L 417.36 75.14 L 419.52 76.03 L 421.68 76.94 L 423.84 77.87 L 426.0 78.82 L 428.16 79.78 L 430.32 80.76 L 432.48 81.75 L 434.64 82.75 L 436.8 83.77 L 438.96 84.8 L 441.12 85.84 L 443.28 86.89 L 445.44 87.95 L 447.6 89.02 L 449.76 90.09 L 451.92 91.18 L 454.08 92.27 L 456.24 93.37 L 458.4 94.48 L 460.56 95.59 L 462.72 96.7 L 464.88 97.82 L 467.04 98.95 L 469.2 100.07 L 471.36 101.2 L 473.52 102.33 L 475.68 103.46 L 477.84 104.6 L 480.0 105.73 L 482.16 106.86 L 484.32 108.0 L 486.48 109.13 L 488.64 110.26 L 490.8 111.39 L 492.96 112.52 L 495.12 113.64 L 497.28 114.76 L 499.44 115.88 L 501.6 116.99 L 503.76 118.1 L 505.92 119.21 L 508.08 120.31 L 510.24 121.41 L 512.4 122.5 L 514.56 123.58 L 516.72 124.66 L 518.88 125.73 L 521.04 126.79 L 523.2 127.85 L 525.36 128.9 L 527.52 129.95 L 529.68 130.98 L 531.84 132.01 L 534.0 133.03 L 536.16 134.04 L 538.32 135.05 L 540.48 136.04 L 542.64 137.03 L 544.8 138.0 L 546.96 138.97 L 549.12 139.93 L 551.28 140.88 L 553.44 141.82 L 555.6 142.75 L 557.76 143.67 L 559.92 144.58 L 562.08 145.48 L 564.24 146.37 L 566.4 147.25 L 568.56 148.12 L 570.72 148.98 L 572.88 149.83 L 575.04 150.67 L 577.2 151.5 L 579.36 152.32 L 581.52 153.13 L 583.68 153.93 L 585.84 154.71 L 588.0 155.49 L 590.16 156.26 L 592.32 157.01 L 594.48 157.76 L 596.64 158.49 L 598.8 159.22 L 600.96 159.93 L 603.12 160.64 L 605.28 161.33 L 607.44 162.01 L 609.6 162.69 L 611.76 163.35 L 613.92 164.0 L 616.08 164.64 L 618.24 165.27 L 620.4 165.9 L 622.56 166.51 L 624.72 167.11 L 626.88 167.7 L 629.04 168.29 L 631.2 168.86 L 633.36 169.42 L 635.52 169.97 L 637.68 170.52 L 639.84 171.05 L 642.0 171.58 L 644.16 172.09 L 646.32 172.6 L 648.48 173.1 L 650.64 173.59 L 652.8 174.07 L 654.96 174.54 L 657.12 175.0 L 659.28 175.45 L 661.44 175.9 L 663.6 176.34 L 665.76 176.76 L 667.92 177.18 L 670.08 177.6 L 672.24 178.0 L 674.4 178.4 L 676.56 178.78 L 678.72 179.16 L 680.88 179.54 L 683.04 179.9 L 685.2 180.26 L 687.36 180.61 L 689.52 180.96 L 691.68 181.29 L 693.84 181.62 L 696.0 181.94 L 698.16 182.26 L 700.32 182.57 L 702.48 182.87 L 704.64 183.17 L 706.8 183.46 L 708.96 183.74 L 711.12 184.02 L 713.28 184.29 L 715.44 184.55 L 717.6 184.81 L 719.76 185.07 L 721.92 185.31 L 724.08 185.56 L 726.24 185.79 L 728.4 186.02 L 730.56 186.25 L 732.72 186.47 L 734.88 186.69 L 737.04 186.9 L 739.2 187.1 L 741.36 187.31 L 743.52 187.5 L 745.68 187.69 L 747.84 187.88 L 750.0 188.06 L 752.16 188.24 L 754.32 188.42 L 756.48 188.59 L 758.64 188.75 L 760.8 188.91 L 762.96 189.07 L 765.12 189.22 L 767.28 189.37 L 769.44 189.52 L 771.6 189.66 L 773.76 189.8 L 775.92 189.94 L 778.08 190.07 L 780.24 190.2 L 782.4 190.32 L 784.56 190.45 L 786.72 190.57 L 788.88 190.68 L 791.04 190.8 L 793.2 190.91 L 795.36 191.01 L 797.52 191.12 L 799.68 191.22 L 801.84 191.32 L 804.0 191.41 L 806.16 191.51 L 808.32 191.6 L 810.48 191.69 L 812.64 191.77 L 814.8 191.86 L 816.96 191.94 L 819.12 192.02 L 821.28 192.1 L 823.44 192.17 L 825.6 192.25 L 827.76 192.32 L 829.92 192.39 L 832.08 192.45 L 834.24 192.52 L 836.4 192.58 L 838.56 192.65 L 840.72 192.71 L 842.88 192.76 L 845.04 192.82 L 847.2 192.88 L 849.36 192.93 L 851.52 192.98 L 853.68 193.03 L 855.84 193.08 L 858.0 193.13 L 860.16 193.18 L 862.32 193.22 L 864.48 193.26 L 866.64 193.31 L 868.8 193.35 L 870.96 193.39 L 873.12 193.43 L 875.28 193.46 L 877.44 193.5 L 879.6 193.54 L 881.76 193.57 L 883.92 193.6 L 886.08 193.64 L 888.24 193.67 L 890.4 193.7 L 892.56 193.73 L 894.72 193.76 L 896.88 193.78 L 899.04 193.81 L 901.2 193.84 L 903.36 193.86 L 905.52 193.89 L 907.68 193.91 L 909.84 193.93 L 912.0 193.96" fill="none" stroke="#1d4ed8" stroke-width="2.5" stroke-linecap="round" stroke-linejoin="round"/>
</svg>
