<svg xmlns="http://www.w3.org/2000/svg" viewBox="0 0 960 360" role="img" aria-label="Airy Bi(x)">
<rect width="100%" height="100%" fill="white"/>
<text x="48" y="28" font-family="system-ui, sans-serif" font-size="20" fill="#111827">Airy Bi(x)</text>
<line x1="48" y1="304.99" x2="912" y2="304.99" stroke="#808080" stroke-width="1"/>
<path d="M 48.0 299.76 L 50.62 299.73 L 53.24 299.69 L 55.85 299.66 L 58.47 299.62 L 61.09 299.59 L 63.71 299.56 L 66.33 299.52 L 68.95 299.49 L 71.56 299.45 L 74.18 299.41 L 76.8 299.38 L 79.42 299.34 L 82.04 299.31 L 84.65 299.27 L 87.27 299.23 L 89.89 299.2 L 92.51 299.16 L 95.13 299.12 L 97.75 299.09 L 100.36 299.05 L 102.98 299.01 L 105.6 298.97 L 108.22 298.94 L 110.84 298.9 L 113.45 298.86 L 116.07 298.82 L 118.69 298.78 L 121.31 298.74 L 123.93 298.7 L 126.55 298.66 L 129.16 298.62 L 131.78 298.58 L 134.4 298.54 L 137.02 298.5 L 139.64 298.46 L 142.25 298.41 L 144.87 298.37 L 147.49 298.33 L 150.11 298.28 L 152.73 298.24 L 155.35 298.2 L 157.96 298.15 L 160.58 298.11 L 163.2 298.06 L 165.82 298.02 L 168.44 297.97 L 171.05 297.92 L 173.67 297.88 L 176.29 297.83 L 178.91 297.78 L 181.53 297.73 L 184.15 297.68 L 186.76 297.63 L 189.38 297.58 L 192.0 297.53 L 194.62 297.48 L 197.24 297.43 L 199.85 297.37 L 202.47 297.32 L 205.09 297.27 L 207.71 297.21 L 210.33 297.16 L 212.95 297.1 L 215.56 297.05 L 218.18 296.99 L 220.8 296.93 L 223.42 296.87 L 226.04 296.81 L 228.65 296.75 L 231.27 296.69 L 233.89 296.63 L 236.51 296.57 L 239.13 296.51 L 241.75 296.44 L 244.36 296.38 L 246.98 296.32 L 249.6 296.25 L 252.22 296.18 L 254.84 296.11 L 257.45 296.05 L 260.07 295.98 L 262.69 295.91 L 265.31 295.83 L 267.93 295.76 L 270.55 295.69 L 273.16 295.62 L 275.78 295.54 L 278.4 295.46 L 281.02 295.39 L 283.64 295.31 L 286.25 295.23 L 288.87 295.15 L 291.49 295.07 L 294.11 294.98 L 296.73 294.9 L 299.35 294.82 L 301.96 294.73 L 304.58 294.64 L 307.2 294.55 L 309.82 294.46 L 312.44 294.37 L 315.05 294.28 L 317.67 294.19 L 320.29 294.09 L 322.91 294.0 L 325.53 293.9 L 328.15 293.8 L 330.76 293.7 L 333.38 293.6 L 336.0 293.49 L 338.62 293.39 L 341.24 293.28 L 343.85 293.17 L 346.47 293.06 L 349.09 292.95 L 351.71 292.84 L 354.33 292.73 L 356.95 292.61 L 359.56 292.49 L 362.18 292.37 L 364.8 292.25 L 367.42 292.13 L 370.04 292.0 L 372.65 291.88 L 375.27 291.75 L 377.89 291.62 L 380.51 291.48 L 383.13 291.35 L 385.75 291.21 L 388.36 291.07 L 390.98 290.93 L 393.6 290.79 L 396.22 290.65 L 398.84 290.5 L 401.45 290.35 L 404.07 290.2 L 406.69 290.04 L 409.31 289.89 L 411.93 289.73 L 414.55 289.57 L 417.16 289.4 L 419.78 289.24 L 422.4 289.07 L 425.02 288.9 L 427.64 288.72 L 430.25 288.55 L 432.87 288.37 L 435.49 288.19 L 438.11 288.0 L 440.73 287.81 L 443.35 287.62 L 445.96 287.43 L 448.58 287.23 L 451.2 287.03 L 453.82 286.83 L 456.44 286.62 L 459.05 286.41 L 461.67 286.2 L 464.29 285.99 L 466.91 285.77 L 469.53 285.54 L 472.15 285.32 L 474.76 285.09 L 477.38 284.85 L 480.0 284.62 L 482.62 284.37 L 485.24 284.13 L 487.85 283.88 L 490.47 283.63 L 493.09 283.37 L 495.71 283.11 L 498.33 282.85 L 500.95 282.58 L 503.56 282.3 L 506.18 282.03 L 508.8 281.74 L 511.42 281.46 L 514.04 281.16 L 516.65 280.87 L 519.27 280.57 L 521.89 280.26 L 524.51 279.95 L 527.13 279.63 L 529.75 279.31 L 532.36 278.99 L 534.98 278.65 L 537.6 278.32 L 540.22 277.97 L 542.84 277.63 L 545.45 277.27 L 548.07 276.91 L 550.69 276.55 L 553.31 276.17 L 555.93 275.8 L 558.55 275.41 L 561.16 275.02 L 563.78 274.62 L 566.4 274.22 L 569.02 273.81 L 571.64 273.39 L 574.25 272.97 L 576.87 272.54 L 579.49 272.1 L 582.11 271.65 L 584.73 271.2 L 587.35 270.74 L 589.96 270.27 L 592.58 269.79 L 595.2 269.31 L 597.82 268.82 L 600.44 268.32 L 603.05 267.81 L 605.67 267.29 L 608.29 266.76 L 610.91 266.22 L 613.53 265.68 L 616.15 265.13 L 618.76 264.56 L 621.38 263.99 L 624.0 263.41 L 626.62 262.81 L 629.24 262.21 L 631.85 261.6 L 634.47 260.97 L 637.09 260.34 L 639.71 259.69 L 642.33 259.03 L 644.95 258.37 L 647.56 257.69 L 650.18 256.99 L 652.8 256.29 L 655.42 255.58 L 658.04 254.85 L 660.65 254.11 L 663.27 253.35 L 665.89 252.58 L 668.51 251.8 L 671.13 251.01 L 673.75 250.2 L 676.36 249.38 L 678.98 248.54 L 681.6 247.69 L 684.22 246.83 L 686.84 245.94 L 689.45 245.05 L 692.07 244.13 L 694.69 243.2 L 697.31 242.26 L 699.93 241.29 L 702.55 240.32 L 705.16 239.32 L 707.78 238.3 L 710.4 237.27 L 713.02 236.22 L 715.64 235.15 L 718.25 234.06 L 720.87 232.95 L 723.49 231.82 L 726.11 230.67 L 728.73 229.5 L 731.35 228.31 L 733.96 227.09 L 736.58 225.86 L 739.2 224.6 L 741.82 223.32 L 744.44 222.02 L 747.05 220.69 L 749.67 219.34 L 752.29 217.96 L 754.91 216.56 L 757.53 215.13 L 760.15 213.68 L 762.76 212.2 L 765.38 210.69 L 768.0 209.16 L 770.62 207.6 L 773.24 206.01 L 775.85 204.38 L 778.47 202.73 L 781.09 201.05 L 783.71 199.34 L 786.33 197.59 L 788.95 195.82 L 791.56 194.01 L 794.18 192.16 L 796.8 190.28 L 799.42 188.37 L 802.04 186.42 L 804.65 184.44 L 807.27 182.41 L 809.89 180.35 L 812.51 178.25 L 815.13 176.11 L 817.75 173.93 L 820.36 171.71 L 822.98 169.45 L 825.6 167.14 L 828.22 164.79 L 830.84 162.4 L 833.45 159.96 L 836.07 157.47 L 838.69 154.94 L 841.31 152.36 L 843.93 149.73 L 846.55 147.05 L 849.16 144.32 L 851.78 141.53 L 854.4 138.69 L 857.02 135.8 L 859.64 132.85 L 862.25 129.85 L 864.87 126.78 L 867.49 123.66 L 870.11 120.48 L 872.73 117.23 L 875.35 113.93 L 877.96 110.55 L 880.58 107.12 L 883.2 103.61 L 885.82 100.04 L 888.44 96.4 L 891.05 92.69 L 893.67 88.9 L 896.29 85.04 L 898.91 81.11 L 901.53 77.09 L 904.15 73.0 L 906.76 68.83 L 909.38 64.58 L 912.0 60.24" fill="none" stroke="#7c3aed" stroke-width="2.5" stroke-linecap="round" stroke-linejoin="round"/>
</svg>
