<svg xmlns="http://www.w3.org/2000/svg" viewBox="0 0 960 360" role="img" aria-label="Airy Ai'(x)">
<rect width="100%" height="100%" fill="white"/>
<text x="48" y="28" font-family="system-ui, sans-serif" font-size="20" fill="#111827">Airy Ai'(x)</text>
<line x1="48" y1="221.25" x2="912" y2="221.25" stroke="#808080" stroke-width="1"/>
<line x1="480.0" y1="48" x2="480.0" y2="312" stroke="#808080" stroke-width="1"/>
<path d="M 48.0 300.47 L 50.16 295.13 L 52.32 289.75 L 54.48 284.32 L 56.64 278.85 L 58.8 273.35 L 60.96 267.82 L 63.12 262.27 L 65.28 256.71 L 67.44 251.14 L 69.6 245.57 L 71.76 240.0 L 73.92 234.45 L 76.08 228.91 L 78.24 223.39 L 80.4 217.9 L 82.56 212.44 L 84.72 207.03 L 86.88 201.65 L 89.04 196.32 L 91.2 191.05 L 93.36 185.83 L 95.52 180.68 L 97.68 175.6 L 99.84 170.58 L 102.0 165.65 L 104.16 160.79 L 106.32 156.02 L 108.48 151.33 L 110.64 146.74 L 112.8 142.24 L 114.96 137.84 L 117.12 133.54 L 119.28 129.35 L 121.44 125.26 L 123.6 121.28 L 125.76 117.41 L 127.92 113.66 L 130.08 110.03 L 132.24 106.51 L 134.4 103.12 L 136.56 99.84 L 138.72 96.69 L 140.88 93.67 L 143.04 90.77 L 145.2 88.0 L 147.36 85.35 L 149.52 82.84 L 151.68 80.45 L 153.84 78.2 L 156.0 76.07 L 158.16 74.08 L 160.32 72.21 L 162.48 70.48 L 164.64 68.88 L 166.8 67.4 L 168.96 66.06 L 171.12 64.84 L 173.28 63.76 L 175.44 62.79 L 177.6 61.96 L 179.76 61.25 L 181.92 60.66 L 184.08 60.2 L 186.24 59.86 L 188.4 59.64 L 190.56 59.53 L 192.72 59.54 L 194.88 59.67 L 197.04 59.91 L 199.2 60.26 L 201.36 60.72 L 203.52 61.29 L 205.68 61.96 L 207.84 62.74 L 210.0 63.61 L 212.16 64.58 L 214.32 65.65 L 216.48 66.82 L 218.64 68.07 L 220.8 69.41 L 222.96 70.84 L 225.12 72.35 L 227.28 73.94 L 229.44 75.62 L 231.6 77.36 L 233.76 79.18 L 235.92 81.07 L 238.08 83.03 L 240.24 85.06 L 242.4 87.14 L 244.56 89.29 L 246.72 91.49 L 248.88 93.75 L 251.04 96.06 L 253.2 98.42 L 255.36 100.82 L 257.52 103.27 L 259.68 105.76 L 261.84 108.29 L 264.0 110.86 L 266.16 113.45 L 268.32 116.08 L 270.48 118.74 L 272.64 121.42 L 274.8 124.13 L 276.96 126.85 L 279.12 129.6 L 281.28 132.36 L 283.44 135.14 L 285.6 137.92 L 287.76 140.72 L 289.92 143.52 L 292.08 146.33 L 294.24 149.14 L 296.4 151.95 L 298.56 154.76 L 300.72 157.56 L 302.88 160.36 L 305.04 163.16 L 307.2 165.94 L 309.36 168.71 L 311.52 171.47 L 313.68 174.22 L 315.84 176.95 L 318.0 179.66 L 320.16 182.35 L 322.32 185.02 L 324.48 187.67 L 326.64 190.3 L 328.8 192.9 L 330.96 195.47 L 333.12 198.02 L 335.28 200.54 L 337.44 203.03 L 339.6 205.48 L 341.76 207.91 L 343.92 210.3 L 346.08 212.66 L 348.24 214.98 L 350.4 217.27 L 352.56 219.52 L 354.72 221.73 L 356.88 223.91 L 359.04 226.04 L 361.2 228.14 L 363.36 230.2 L 365.52 232.22 L 367.68 234.19 L 369.84 236.13 L 372.0 238.02 L 374.16 239.87 L 376.32 241.68 L 378.48 243.45 L 380.64 245.17 L 382.8 246.86 L 384.96 248.49 L 387.12 250.09 L 389.28 251.64 L 391.44 253.15 L 393.6 254.61 L 395.76 256.04 L 397.92 257.42 L 400.08 258.75 L 402.24 260.04 L 404.4 261.3 L 406.56 262.5 L 408.72 263.67 L 410.88 264.79 L 413.04 265.87 L 415.2 266.91 L 417.36 267.91 L 419.52 268.87 L 421.68 269.78 L 423.84 270.66 L 426.0 271.5 L 428.16 272.29 L 430.32 273.05 L 432.48 273.77 L 434.64 274.45 L 436.8 275.1 L 438.96 275.7 L 441.12 276.27 L 443.28 276.81 L 445.44 277.31 L 447.6 277.77 L 449.76 278.2 L 451.92 278.6 L 454.08 278.96 L 456.24 279.29 L 458.4 279.59 L 460.56 279.86 L 462.72 280.09 L 464.88 280.3 L 467.04 280.48 L 469.2 280.62 L 471.36 280.74 L 473.52 280.83 L 475.68 280.9 L 477.84 280.94 L 480.0 280.95 L 482.16 280.94 L 484.32 280.9 L 486.48 280.84 L 488.64 280.76 L 490.8 280.65 L 492.96 280.52 L 495.12 280.37 L 497.28 280.2 L 499.44 280.01 L 501.6 279.8 L 503.76 279.57 L 505.92 279.33 L 508.08 279.06 L 510.24 278.78 L 512.4 278.49 L 514.56 278.17 L 516.72 277.84 L 518.88 277.5 L 521.04 277.14 L 523.2 276.77 L 525.36 276.39 L 527.52 276.0 L 529.68 275.59 L 531.84 275.17 L 534.0 274.74 L 536.16 274.3 L 538.32 273.85 L 540.48 273.39 L 542.64 272.93 L 544.8 272.45 L 546.96 271.97 L 549.12 271.48 L 551.28 270.98 L 553.44 270.48 L 555.6 269.97 L 557.76 269.45 L 559.92 268.93 L 562.08 268.41 L 564.24 267.88 L 566.4 267.35 L 568.56 266.81 L 570.72 266.27 L 572.88 265.73 L 575.04 265.19 L 577.2 264.64 L 579.36 264.09 L 581.52 263.54 L 583.68 262.99 L 585.84 262.44 L 588.0 261.89 L 590.16 261.34 L 592.32 260.79 L 594.48 260.23 L 596.64 259.68 L 598.8 259.13 L 600.96 258.59 L 603.12 258.04 L 605.28 257.49 L 607.44 256.95 L 609.6 256.41 L 611.76 255.87 L 613.92 255.33 L 616.08 254.8 L 618.24 254.27 L 620.4 253.74 L 622.56 253.21 L 624.72 252.69 L 626.88 252.17 L 629.04 251.66 L 631.2 251.15 L 633.36 250.64 L 635.52 250.14 L 637.68 249.64 L 639.84 249.15 L 642.0 248.66 L 644.16 248.17 L 646.32 247.69 L 648.48 247.22 L 650.64 246.75 L 652.8 246.28 L 654.96 245.82 L 657.12 245.36 L 659.28 244.91 L 661.44 244.47 L 663.6 244.03 L 665.76 243.59 L 667.92 243.16 L 670.08 242.74 L 672.24 242.32 L 674.4 241.9 L 676.56 241.49 L 678.72 241.09 L 680.88 240.69 L 683.04 240.3 L 685.2 239.91 L 687.36 239.53 L 689.52 239.15 L 691.68 238.78 L 693.84 238.42 L 696.0 238.06 L 698.16 237.7 L 700.32 237.35 L 702.48 237.01 L 704.64 236.67 L 706.8 236.34 L 708.96 236.01 L 711.12 235.69 L 713.28 235.37 L 715.44 235.06 L 717.6 234.75 L 719.76 234.45 L 721.92 234.16 L 724.08 233.87 L 726.24 233.58 L 728.4 233.3 L 730.56 233.02 L 732.72 232.75 L 734.88 232.49 L 737.04 232.23 L 739.2 231.97 L 741.36 231.72 L 743.52 231.47 L 745.68 231.23 L 747.84 230.99 L 750.0 230.76 L 752.16 230.53 L 754.32 230.31 L 756.48 230.09 L 758.64 229.87 L 760.8 229.66 L 762.96 229.45 L 765.12 229.25 L 767.28 229.05 L 769.44 228.86 L 771.6 228.67 L 773.76 228.48 L 775.92 228.3 L 778.08 228.12 L 780.24 227.95 L 782.4 227.78 L 784.56 227.61 L 786.72 227.45 L 788.88 227.29 L 791.04 227.13 L 793.2 226.98 L 795.36 226.83 L 797.52 226.68 L 799.68 226.54 L 801.84 226.4 L 804.0 226.26 L 806.16 226.13 L 808.32 226.0 L 810.48 225.87 L 812.64 225.75 L 814.8 225.63 L 816.96 225.51 L 819.12 225.39 L 821.28 225.28 L 823.44 225.17 L 825.6 225.06 L 827.76 224.95 L 829.92 224.85 L 832.08 224.75 L 834.24 224.65 L 836.4 224.56 L 838.56 224.47 L 840.72 224.38 L 842.88 224.29 L 845.04 224.2 L 847.2 224.12 L 849.36 224.04 L 851.52 223.96 L 853.68 223.88 L 855.84 223.8 L 858.0 223.73 L 860.16 223.66 L 862.32 223.59 L 864.48 223.52 L 866.64 223.45 L 868.8 223.39 L 870.96 223.33 L 873.12 223.26 L 875.28 223.21 L 877.44 223.15 L 879.6 223.09 L 881.76 223.04 L 883.92 222.98 L 886.08 222.93 L 888.24 222.88 L 890.4 222.83 L 892.56 222.78 L 894.72 222.74 L 896.88 222.69 L 899.04 222.65 L 901.2 222.6 L 903.36 222.56 L 905.52 222.52 L 907.68 222.48 L 909.84 222.45 L 912.0 222.41" fill="none" stroke="#b45309" stroke-width="2.5" stroke-linecap="round" stroke-linejoin="round"/>
</svg>
