<svg xmlns="http://www.w3.org/2000/svg" viewBox="0 0 960 360" role="img" aria-label="Airy Bi'(x)">
<rect width="100%" height="100%" fill="white"/>
<text x="48" y="28" font-family="system-ui, sans-serif" font-size="20" fill="#111827">Airy Bi'(x)</text>
<line x1="48" y1="301.8" x2="912" y2="301.8" stroke="#808080" stroke-width="1"/>
<path d="M 48.0 299.91 L 50.62 299.91 L 53.24 299.9 L 55.85 299.9 L 58.47 299.89 L 61.09 299.88 L 63.71 299.87 L 66.33 299.87 L 68.95 299.86 L 71.56 299.85 L 74.18 299.84 L 76.8 299.83 L 79.42 299.82 L 82.04 299.81 L 84.65 299.8 L 87.27 299.79 L 89.89 299.78 L 92.51 299.77 L 95.13 299.75 L 97.75 299.74 L 100.36 299.73 L 102.98 299.72 L 105.6 299.7 L 108.22 299.69 L 110.84 299.67 L 113.45 299.66 L 116.07 299.64 L 118.69 299.63 L 121.31 299.61 L 123.93 299.59 L 126.55 299.58 L 129.16 299.56 L 131.78 299.54 L 134.4 299.52 L 137.02 299.5 L 139.64 299.48 L 142.25 299.46 L 144.87 299.44 L 147.49 299.42 L 150.11 299.4 L 152.73 299.38 L 155.35 299.36 L 157.96 299.33 L 160.58 299.31 L 163.2 299.28 L 165.82 299.26 L 168.44 299.23 L 171.05 299.21 L 173.67 299.18 L 176.29 299.15 L 178.91 299.13 L 181.53 299.1 L 184.15 299.07 L 186.76 299.04 L 189.38 299.01 L 192.0 298.98 L 194.62 298.95 L 197.24 298.92 L 199.85 298.89 L 202.47 298.85 L 205.09 298.82 L 207.71 298.78 L 210.33 298.75 L 212.95 298.71 L 215.56 298.68 L 218.18 298.64 L 220.8 298.6 L 223.42 298.56 L 226.04 298.52 L 228.65 298.48 L 231.27 298.44 L 233.89 298.4 L 236.51 298.36 L 239.13 298.32 L 241.75 298.27 L 244.36 298.23 L 246.98 298.18 L 249.6 298.14 L 252.22 298.09 L 254.84 298.04 L 257.45 297.99 L 260.07 297.94 L 262.69 297.89 L 265.31 297.84 L 267.93 297.79 L 270.55 297.73 L 273.16 297.68 L 275.78 297.62 L 278.4 297.57 L 281.02 297.51 L 283.64 297.45 L 286.25 297.39 L 288.87 297.33 L 291.49 297.27 L 294.11 297.21 L 296.73 297.15 L 299.35 297.08 L 301.96 297.02 L 304.58 296.95 L 307.2 296.88 L 309.82 296.81 L 312.44 296.74 L 315.05 296.67 L 317.67 296.6 L 320.29 296.52 L 322.91 296.45 L 325.53 296.37 L 328.15 296.29 L 330.76 296.21 L 333.38 296.13 L 336.0 296.05 L 338.62 295.97 L 341.24 295.88 L 343.85 295.8 L 346.47 295.71 L 349.09 295.62 L 351.71 295.53 L 354.33 295.44 L 356.95 295.35 L 359.56 295.25 L 362.18 295.16 L 364.8 295.06 L 367.42 294.96 L 370.04 294.86 L 372.65 294.75 L 375.27 294.65 L 377.89 294.54 L 380.51 294.43 L 383.13 294.32 L 385.75 294.21 L 388.36 294.09 L 390.98 293.98 L 393.6 293.86 L 396.22 293.74 L 398.84 293.62 L 401.45 293.49 L 404.07 293.37 L 406.69 293.24 L 409.31 293.11 L 411.93 292.98 L 414.55 292.84 L 417.16 292.7 L 419.78 292.56 L 422.4 292.42 L 425.02 292.28 L 427.64 292.13 L 430.25 291.98 L 432.87 291.83 L 435.49 291.68 L 438.11 291.52 L 440.73 291.36 L 443.35 291.2 L 445.96 291.03 L 448.58 290.86 L 451.2 290.69 L 453.82 290.52 L 456.44 290.34 L 459.05 290.16 L 461.67 289.98 L 464.29 289.79 L 466.91 289.6 L 469.53 289.41 L 472.15 289.22 L 474.76 289.02 L 477.38 288.81 L 480.0 288.61 L 482.62 288.4 L 485.24 288.18 L 487.85 287.97 L 490.47 287.75 L 493.09 287.52 L 495.71 287.29 L 498.33 287.06 L 500.95 286.82 L 503.56 286.58 L 506.18 286.34 L 508.8 286.09 L 511.42 285.84 L 514.04 285.58 L 516.65 285.31 L 519.27 285.05 L 521.89 284.78 L 524.51 284.5 L 527.13 284.22 L 529.75 283.93 L 532.36 283.64 L 534.98 283.34 L 537.6 283.04 L 540.22 282.73 L 542.84 282.42 L 545.45 282.1 L 548.07 281.78 L 550.69 281.45 L 553.31 281.11 L 555.93 280.77 L 558.55 280.42 L 561.16 280.07 L 563.78 279.71 L 566.4 279.34 L 569.02 278.97 L 571.64 278.59 L 574.25 278.2 L 576.87 277.81 L 579.49 277.41 L 582.11 277.0 L 584.73 276.58 L 587.35 276.16 L 589.96 275.73 L 592.58 275.29 L 595.2 274.84 L 597.82 274.39 L 600.44 273.93 L 603.05 273.45 L 605.67 272.97 L 608.29 272.48 L 610.91 271.99 L 613.53 271.48 L 616.15 270.96 L 618.76 270.44 L 621.38 269.9 L 624.0 269.35 L 626.62 268.8 L 629.24 268.23 L 631.85 267.66 L 634.47 267.07 L 637.09 266.47 L 639.71 265.86 L 642.33 265.24 L 644.95 264.61 L 647.56 263.97 L 650.18 263.31 L 652.8 262.64 L 655.42 261.96 L 658.04 261.27 L 660.65 260.56 L 663.27 259.84 L 665.89 259.11 L 668.51 258.36 L 671.13 257.6 L 673.75 256.82 L 676.36 256.03 L 678.98 255.23 L 681.6 254.41 L 684.22 253.57 L 686.84 252.72 L 689.45 251.85 L 692.07 250.97 L 694.69 250.06 L 697.31 249.15 L 699.93 248.21 L 702.55 247.26 L 705.16 246.28 L 707.78 245.29 L 710.4 244.28 L 713.02 243.25 L 715.64 242.2 L 718.25 241.13 L 720.87 240.04 L 723.49 238.93 L 726.11 237.8 L 728.73 236.64 L 731.35 235.46 L 733.96 234.26 L 736.58 233.04 L 739.2 231.79 L 741.82 230.52 L 744.44 229.22 L 747.05 227.9 L 749.67 226.55 L 752.29 225.18 L 754.91 223.78 L 757.53 222.35 L 760.15 220.89 L 762.76 219.41 L 765.38 217.89 L 768.0 216.35 L 770.62 214.77 L 773.24 213.16 L 775.85 211.53 L 778.47 209.86 L 781.09 208.15 L 783.71 206.41 L 786.33 204.64 L 788.95 202.84 L 791.56 200.99 L 794.18 199.11 L 796.8 197.19 L 799.42 195.24 L 802.04 193.24 L 804.65 191.21 L 807.27 189.13 L 809.89 187.01 L 812.51 184.85 L 815.13 182.65 L 817.75 180.4 L 820.36 178.11 L 822.98 175.77 L 825.6 173.38 L 828.22 170.95 L 830.84 168.46 L 833.45 165.93 L 836.07 163.34 L 838.69 160.7 L 841.31 158.01 L 843.93 155.26 L 846.55 152.46 L 849.16 149.6 L 851.78 146.68 L 854.4 143.7 L 857.02 140.66 L 859.64 137.55 L 862.25 134.39 L 864.87 131.16 L 867.49 127.86 L 870.11 124.49 L 872.73 121.06 L 875.35 117.55 L 877.96 113.97 L 880.58 110.32 L 883.2 106.59 L 885.82 102.78 L 888.44 98.9 L 891.05 94.93 L 893.67 90.89 L 896.29 86.75 L 898.91 82.54 L 901.53 78.23 L 904.15 73.83 L 906.76 69.35 L 909.38 64.76 L 912.0 60.09" fill="none" stroke="#be185d" stroke-width="2.5" stroke-linecap="round" stroke-linejoin="round"/>
</svg>
