<svg xmlns="http://www.w3.org/2000/svg" viewBox="0 0 960 360" role="img" aria-label="Bessel Y0(x)">
<rect width="100%" height="100%" fill="white"/>
<text x="48" y="28" font-family="system-ui, sans-serif" font-size="20" fill="#111827">Bessel Y0(x)</text>
<line x1="48" y1="136.74" x2="912" y2="136.74" stroke="#808080" stroke-width="1"/>
<path d="M 48.0 303.65 L 50.06 281.72 L 52.12 263.34 L 54.19 247.43 L 56.25 233.36 L 58.31 220.7 L 60.37 209.17 L 62.43 198.55 L 64.5 188.71 L 66.56 179.54 L 68.62 170.94 L 70.68 162.85 L 72.74 155.22 L 74.81 148.0 L 76.87 141.17 L 78.93 134.69 L 80.99 128.55 L 83.05 122.72 L 85.12 117.18 L 87.18 111.94 L 89.24 106.97 L 91.3 102.27 L 93.37 97.82 L 95.43 93.63 L 97.49 89.68 L 99.55 85.97 L 101.61 82.5 L 103.68 79.26 L 105.74 76.25 L 107.8 73.47 L 109.86 70.9 L 111.92 68.56 L 113.99 66.43 L 116.05 64.51 L 118.11 62.8 L 120.17 61.3 L 122.23 60.01 L 124.3 58.91 L 126.36 58.02 L 128.42 57.32 L 130.48 56.81 L 132.54 56.48 L 134.61 56.35 L 136.67 56.39 L 138.73 56.61 L 140.79 57.0 L 142.85 57.56 L 144.92 58.28 L 146.98 59.17 L 149.04 60.2 L 151.1 61.39 L 153.16 62.73 L 155.23 64.2 L 157.29 65.81 L 159.35 67.54 L 161.41 69.4 L 163.47 71.38 L 165.54 73.47 L 167.6 75.67 L 169.66 77.97 L 171.72 80.36 L 173.79 82.84 L 175.85 85.4 L 177.91 88.03 L 179.97 90.74 L 182.03 93.51 L 184.1 96.33 L 186.16 99.21 L 188.22 102.12 L 190.28 105.08 L 192.34 108.06 L 194.41 111.07 L 196.47 114.09 L 198.53 117.13 L 200.59 120.17 L 202.65 123.21 L 204.72 126.24 L 206.78 129.25 L 208.84 132.25 L 210.9 135.22 L 212.96 138.15 L 215.03 141.05 L 217.09 143.91 L 219.15 146.72 L 221.21 149.47 L 223.27 152.16 L 225.34 154.79 L 227.4 157.35 L 229.46 159.84 L 231.52 162.25 L 233.58 164.57 L 235.65 166.81 L 237.71 168.96 L 239.77 171.02 L 241.83 172.98 L 243.89 174.84 L 245.96 176.59 L 248.02 178.24 L 250.08 179.78 L 252.14 181.21 L 254.21 182.53 L 256.27 183.73 L 258.33 184.82 L 260.39 185.79 L 262.45 186.65 L 264.52 187.38 L 266.58 187.99 L 268.64 188.49 L 270.7 188.86 L 272.76 189.12 L 274.83 189.26 L 276.89 189.28 L 278.95 189.18 L 281.01 188.97 L 283.07 188.64 L 285.14 188.2 L 287.2 187.65 L 289.26 186.99 L 291.32 186.23 L 293.38 185.36 L 295.45 184.39 L 297.51 183.32 L 299.57 182.15 L 301.63 180.9 L 303.69 179.56 L 305.76 178.13 L 307.82 176.62 L 309.88 175.03 L 311.94 173.37 L 314.0 171.64 L 316.07 169.85 L 318.13 167.99 L 320.19 166.08 L 322.25 164.12 L 324.32 162.12 L 326.38 160.07 L 328.44 157.98 L 330.5 155.86 L 332.56 153.71 L 334.63 151.54 L 336.69 149.36 L 338.75 147.16 L 340.81 144.95 L 342.87 142.74 L 344.94 140.53 L 347.0 138.32 L 349.06 136.13 L 351.12 133.95 L 353.18 131.8 L 355.25 129.67 L 357.31 127.57 L 359.37 125.5 L 361.43 123.47 L 363.49 121.48 L 365.56 119.54 L 367.62 117.66 L 369.68 115.82 L 371.74 114.04 L 373.8 112.33 L 375.87 110.68 L 377.93 109.09 L 379.99 107.58 L 382.05 106.15 L 384.11 104.79 L 386.18 103.5 L 388.24 102.3 L 390.3 101.19 L 392.36 100.16 L 394.42 99.21 L 396.49 98.36 L 398.55 97.6 L 400.61 96.93 L 402.67 96.35 L 404.74 95.86 L 406.8 95.47 L 408.86 95.17 L 410.92 94.96 L 412.98 94.85 L 415.05 94.84 L 417.11 94.91 L 419.17 95.08 L 421.23 95.35 L 423.29 95.7 L 425.36 96.14 L 427.42 96.67 L 429.48 97.29 L 431.54 97.99 L 433.6 98.77 L 435.67 99.64 L 437.73 100.58 L 439.79 101.6 L 441.85 102.69 L 443.91 103.85 L 445.98 105.08 L 448.04 106.37 L 450.1 107.72 L 452.16 109.14 L 454.22 110.6 L 456.29 112.12 L 458.35 113.68 L 460.41 115.29 L 462.47 116.94 L 464.53 118.63 L 466.6 120.34 L 468.66 122.09 L 470.72 123.86 L 472.78 125.65 L 474.84 127.45 L 476.91 129.27 L 478.97 131.1 L 481.03 132.93 L 483.09 134.76 L 485.16 136.58 L 487.22 138.4 L 489.28 140.2 L 491.34 141.99 L 493.4 143.76 L 495.47 145.51 L 497.53 147.23 L 499.59 148.92 L 501.65 150.57 L 503.71 152.19 L 505.78 153.76 L 507.84 155.29 L 509.9 156.77 L 511.96 158.2 L 514.02 159.57 L 516.09 160.89 L 518.15 162.15 L 520.21 163.35 L 522.27 164.48 L 524.33 165.55 L 526.4 166.54 L 528.46 167.47 L 530.52 168.33 L 532.58 169.1 L 534.64 169.81 L 536.71 170.44 L 538.77 170.99 L 540.83 171.46 L 542.89 171.85 L 544.95 172.17 L 547.02 172.4 L 549.08 172.55 L 551.14 172.63 L 553.2 172.62 L 555.26 172.53 L 557.33 172.36 L 559.39 172.12 L 561.45 171.79 L 563.51 171.39 L 565.58 170.91 L 567.64 170.36 L 569.7 169.74 L 571.76 169.05 L 573.82 168.28 L 575.89 167.45 L 577.95 166.55 L 580.01 165.6 L 582.07 164.57 L 584.13 163.5 L 586.2 162.36 L 588.26 161.17 L 590.32 159.94 L 592.38 158.65 L 594.44 157.33 L 596.51 155.95 L 598.57 154.55 L 600.63 153.11 L 602.69 151.64 L 604.75 150.13 L 606.82 148.61 L 608.88 147.07 L 610.94 145.5 L 613.0 143.94 L 615.06 142.35 L 617.13 140.74 L 619.19 139.15 L 621.25 137.56 L 623.31 135.96 L 625.37 134.37 L 627.44 132.8 L 629.5 131.24 L 631.56 129.7 L 633.62 128.19 L 635.68 126.68 L 637.75 125.2 L 639.81 123.76 L 641.87 122.34 L 643.93 120.99 L 646.0 119.67 L 648.06 118.35 L 650.12 117.14 L 652.18 115.94 L 654.24 114.81 L 656.31 113.69 L 658.37 112.66 L 660.43 111.7 L 662.49 110.75 L 664.55 109.9 L 666.62 109.14 L 668.68 108.35 L 670.74 107.75 L 672.8 107.12 L 674.86 106.59 L 676.93 106.11 L 678.99 105.77 L 681.05 105.41 L 683.11 105.15 L 685.17 105.01 L 687.24 104.86 L 689.3 104.77 L 691.36 104.92 L 693.42 104.91 L 695.48 105.18 L 697.55 105.39 L 699.61 105.66 L 701.67 106.09 L 703.73 106.46 L 705.79 107.04 L 707.86 107.59 L 709.92 108.25 L 711.98 108.89 L 714.04 109.68 L 716.11 110.45 L 718.17 111.42 L 720.23 112.39 L 722.29 113.35 L 724.35 114.37 L 726.42 115.34 L 728.48 116.58 L 730.54 117.67 L 732.6 119.09 L 734.66 120.19 L 736.73 121.48 L 738.79 122.86 L 740.85 124.19 L 742.91 125.51 L 744.97 126.61 L 747.04 128.15 L 749.1 129.63 L 751.16 130.92 L 753.22 132.65 L 755.28 133.93 L 757.35 135.24 L 759.41 136.9 L 761.47 138.08 L 763.53 139.64 L 765.59 141.0 L 767.66 142.44 L 769.72 143.6 L 771.78 145.44 L 773.84 146.27 L 775.9 147.46 L 777.97 149.15 L 780.03 150.51 L 782.09 151.39 L 784.15 152.92 L 786.21 153.91 L 788.28 154.64 L 790.34 156.35 L 792.4 157.11 L 794.46 157.4 L 796.53 159.14 L 798.59 159.55 L 800.65 160.88 L 802.71 161.44 L 804.77 162.2 L 806.84 163.13 L 808.9 162.38 L 810.96 163.11 L 813.02 165.0 L 815.08 164.25 L 817.15 164.79 L 819.21 164.51 L 821.27 164.82 L 823.33 165.1 L 825.39 165.43 L 827.46 164.63 L 829.52 165.3 L 831.58 164.82 L 833.64 166.85 L 835.7 166.13 L 837.77 164.85 L 839.83 163.47 L 841.89 163.2 L 843.95 163.14 L 846.01 161.95 L 848.08 162.72 L 850.14 160.22 L 852.2 161.14 L 854.26 158.84 L 856.32 158.63 L 858.39 155.34 L 860.45 153.98 L 862.51 154.8 L 864.57 156.43 L 866.63 153.51 L 868.7 154.64 L 870.76 152.42 L 872.82 150.5 L 874.88 151.04 L 876.95 148.91 L 879.01 147.36 L 881.07 145.88 L 883.13 143.81 L 885.19 138.74 L 887.26 143.02 L 889.32 138.36 L 891.38 135.7 L 893.44 135.87 L 895.5 135.47 L 897.57 133.83 L 899.63 130.9 L 901.69 132.31 L 903.75 130.21 L 905.81 121.88 L 907.88 130.22 L 909.94 130.09 L 912.0 126.37" fill="none" stroke="#be123c" stroke-width="2.5" stroke-linecap="round" stroke-linejoin="round"/>
</svg>
