<svg xmlns="http://www.w3.org/2000/svg" viewBox="0 0 960 360" role="img" aria-label="Bessel K0(x)">
<rect width="100%" height="100%" fill="white"/>
<text x="48" y="28" font-family="system-ui, sans-serif" font-size="20" fill="#111827">Bessel K0(x)</text>
<line x1="48" y1="300.02" x2="912" y2="300.02" stroke="#808080" stroke-width="1"/>
<path d="M 48.0 60.0 L 50.71 75.02 L 53.42 88.36 L 56.13 100.32 L 58.83 111.15 L 61.54 121.01 L 64.25 130.05 L 66.96 138.37 L 69.67 146.07 L 72.38 153.22 L 75.08 159.88 L 77.79 166.1 L 80.5 171.92 L 83.21 177.39 L 85.92 182.53 L 88.63 187.38 L 91.34 191.96 L 94.04 196.29 L 96.75 200.39 L 99.46 204.28 L 102.17 207.97 L 104.88 211.48 L 107.59 214.82 L 110.29 218.0 L 113.0 221.03 L 115.71 223.92 L 118.42 226.68 L 121.13 229.31 L 123.84 231.84 L 126.55 234.25 L 129.25 236.56 L 131.96 238.77 L 134.67 240.89 L 137.38 242.93 L 140.09 244.88 L 142.8 246.75 L 145.5 248.55 L 148.21 250.28 L 150.92 251.94 L 153.63 253.54 L 156.34 255.07 L 159.05 256.55 L 161.76 257.97 L 164.46 259.34 L 167.17 260.66 L 169.88 261.93 L 172.59 263.15 L 175.3 264.33 L 178.01 265.47 L 180.71 266.57 L 183.42 267.63 L 186.13 268.65 L 188.84 269.63 L 191.55 270.58 L 194.26 271.5 L 196.97 272.39 L 199.67 273.24 L 202.38 274.07 L 205.09 274.87 L 207.8 275.64 L 210.51 276.39 L 213.22 277.11 L 215.92 277.81 L 218.63 278.48 L 221.34 279.13 L 224.05 279.77 L 226.76 280.38 L 229.47 280.97 L 232.18 281.54 L 234.88 282.09 L 237.59 282.63 L 240.3 283.14 L 243.01 283.64 L 245.72 284.13 L 248.43 284.6 L 251.13 285.06 L 253.84 285.5 L 256.55 285.92 L 259.26 286.34 L 261.97 286.74 L 264.68 287.13 L 267.39 287.5 L 270.09 287.87 L 272.8 288.22 L 275.51 288.56 L 278.22 288.9 L 280.93 289.22 L 283.64 289.53 L 286.34 289.83 L 289.05 290.13 L 291.76 290.41 L 294.47 290.69 L 297.18 290.95 L 299.89 291.21 L 302.6 291.46 L 305.3 291.71 L 308.01 291.95 L 310.72 292.18 L 313.43 292.4 L 316.14 292.61 L 318.85 292.82 L 321.55 293.03 L 324.26 293.23 L 326.97 293.42 L 329.68 293.6 L 332.39 293.78 L 335.1 293.96 L 337.81 294.13 L 340.51 294.3 L 343.22 294.46 L 345.93 294.61 L 348.64 294.76 L 351.35 294.91 L 354.06 295.05 L 356.76 295.19 L 359.47 295.33 L 362.18 295.46 L 364.89 295.58 L 367.6 295.71 L 370.31 295.83 L 373.02 295.94 L 375.72 296.06 L 378.43 296.17 L 381.14 296.27 L 383.85 296.38 L 386.56 296.48 L 389.27 296.57 L 391.97 296.67 L 394.68 296.76 L 397.39 296.85 L 400.1 296.94 L 402.81 297.02 L 405.52 297.1 L 408.23 297.18 L 410.93 297.26 L 413.64 297.34 L 416.35 297.41 L 419.06 297.48 L 421.77 297.55 L 424.48 297.62 L 427.18 297.68 L 429.89 297.75 L 432.6 297.81 L 435.31 297.87 L 438.02 297.93 L 440.73 297.98 L 443.44 298.04 L 446.14 298.09 L 448.85 298.15 L 451.56 298.2 L 454.27 298.25 L 456.98 298.29 L 459.69 298.34 L 462.39 298.39 L 465.1 298.43 L 467.81 298.47 L 470.52 298.51 L 473.23 298.56 L 475.94 298.59 L 478.65 298.63 L 481.35 298.67 L 484.06 298.71 L 486.77 298.74 L 489.48 298.78 L 492.19 298.81 L 494.9 298.84 L 497.61 298.87 L 500.31 298.9 L 503.02 298.93 L 505.73 298.96 L 508.44 298.99 L 511.15 299.02 L 513.86 299.05 L 516.56 299.07 L 519.27 299.1 L 521.98 299.12 L 524.69 299.15 L 527.4 299.17 L 530.11 299.19 L 532.82 299.21 L 535.52 299.23 L 538.23 299.26 L 540.94 299.28 L 543.65 299.3 L 546.36 299.31 L 549.07 299.33 L 551.77 299.35 L 554.48 299.37 L 557.19 299.39 L 559.9 299.4 L 562.61 299.42 L 565.32 299.44 L 568.03 299.45 L 570.73 299.47 L 573.44 299.48 L 576.15 299.49 L 578.86 299.51 L 581.57 299.52 L 584.28 299.54 L 586.98 299.55 L 589.69 299.56 L 592.4 299.57 L 595.11 299.58 L 597.82 299.6 L 600.53 299.61 L 603.24 299.62 L 605.94 299.63 L 608.65 299.64 L 611.36 299.65 L 614.07 299.66 L 616.78 299.67 L 619.49 299.68 L 622.19 299.69 L 624.9 299.69 L 627.61 299.7 L 630.32 299.71 L 633.03 299.72 L 635.74 299.73 L 638.45 299.73 L 641.15 299.74 L 643.86 299.75 L 646.57 299.76 L 649.28 299.76 L 651.99 299.77 L 654.7 299.78 L 657.4 299.78 L 660.11 299.79 L 662.82 299.8 L 665.53 299.8 L 668.24 299.81 L 670.95 299.81 L 673.66 299.82 L 676.36 299.82 L 679.07 299.83 L 681.78 299.83 L 684.49 299.84 L 687.2 299.84 L 689.91 299.85 L 692.61 299.85 L 695.32 299.86 L 698.03 299.86 L 700.74 299.86 L 703.45 299.87 L 706.16 299.87 L 708.87 299.88 L 711.57 299.88 L 714.28 299.88 L 716.99 299.89 L 719.7 299.89 L 722.41 299.89 L 725.12 299.9 L 727.82 299.9 L 730.53 299.9 L 733.24 299.91 L 735.95 299.91 L 738.66 299.91 L 741.37 299.91 L 744.08 299.92 L 746.78 299.92 L 749.49 299.92 L 752.2 299.92 L 754.91 299.93 L 757.62 299.93 L 760.33 299.93 L 763.03 299.93 L 765.74 299.94 L 768.45 299.94 L 771.16 299.94 L 773.87 299.94 L 776.58 299.94 L 779.29 299.95 L 781.99 299.95 L 784.7 299.95 L 787.41 299.95 L 790.12 299.95 L 792.83 299.96 L 795.54 299.96 L 798.24 299.96 L 800.95 299.96 L 803.66 299.96 L 806.37 299.96 L 809.08 299.96 L 811.79 299.97 L 814.5 299.97 L 817.2 299.97 L 819.91 299.97 L 822.62 299.97 L 825.33 299.97 L 828.04 299.97 L 830.75 299.97 L 833.45 299.98 L 836.16 299.98 L 838.87 299.98 L 841.58 299.98 L 844.29 299.98 L 847.0 299.98 L 849.71 299.98 L 852.41 299.98 L 855.12 299.98 L 857.83 299.99 L 860.54 299.99 L 863.25 299.99 L 865.96 299.99 L 868.66 299.99 L 871.37 299.99 L 874.08 299.99 L 876.79 299.99 L 879.5 299.99 L 882.21 299.99 L 884.92 299.99 L 887.62 299.99 L 890.33 299.99 L 893.04 300.0 L 895.75 299.99 L 898.46 300.0 L 901.17 300.0 L 903.87 300.0 L 906.58 300.0 L 909.29 300.0 L 912.0 300.0" fill="none" stroke="#b45309" stroke-width="2.5" stroke-linecap="round" stroke-linejoin="round"/>
</svg>
