<svg xmlns="http://www.w3.org/2000/svg" viewBox="0 0 960 360" role="img" aria-label="Bessel J0(x)">
<rect width="100%" height="100%" fill="white"/>
<text x="48" y="28" font-family="system-ui, sans-serif" font-size="20" fill="#111827">Bessel J0(x)</text>
<line x1="48" y1="235.28" x2="912" y2="235.28" stroke="#808080" stroke-width="1"/>
<line x1="480.0" y1="48" x2="480.0" y2="312" stroke="#808080" stroke-width="1"/>
<path d="M 48.0 303.08 L 50.16 302.64 L 52.32 302.18 L 54.48 301.69 L 56.64 301.18 L 58.8 300.65 L 60.96 300.1 L 63.12 299.52 L 65.28 298.92 L 67.44 298.3 L 69.6 297.65 L 71.76 296.98 L 73.92 296.29 L 76.08 295.58 L 78.24 294.85 L 80.4 294.09 L 82.56 293.31 L 84.72 292.51 L 86.88 291.68 L 89.04 290.84 L 91.2 289.97 L 93.36 289.08 L 95.52 288.17 L 97.68 287.24 L 99.84 286.29 L 102.0 285.31 L 104.16 284.32 L 106.32 283.3 L 108.48 282.27 L 110.64 281.21 L 112.8 280.13 L 114.96 279.03 L 117.12 277.92 L 119.28 276.78 L 121.44 275.62 L 123.6 274.45 L 125.76 273.25 L 127.92 272.04 L 130.08 270.81 L 132.24 269.55 L 134.4 268.28 L 136.56 267.0 L 138.72 265.69 L 140.88 264.37 L 143.04 263.03 L 145.2 261.67 L 147.36 260.29 L 149.52 258.9 L 151.68 257.5 L 153.84 256.07 L 156.0 254.63 L 158.16 253.18 L 160.32 251.71 L 162.48 250.22 L 164.64 248.72 L 166.8 247.2 L 168.96 245.68 L 171.12 244.13 L 173.28 242.58 L 175.44 241.01 L 177.6 239.42 L 179.76 237.83 L 181.92 236.22 L 184.08 234.6 L 186.24 232.97 L 188.4 231.33 L 190.56 229.67 L 192.72 228.01 L 194.88 226.34 L 197.04 224.65 L 199.2 222.96 L 201.36 221.25 L 203.52 219.54 L 205.68 217.82 L 207.84 216.09 L 210.0 214.36 L 212.16 212.61 L 214.32 210.86 L 216.48 209.1 L 218.64 207.34 L 220.8 205.56 L 222.96 203.79 L 225.12 202.01 L 227.28 200.22 L 229.44 198.43 L 231.6 196.63 L 233.76 194.83 L 235.92 193.03 L 238.08 191.22 L 240.24 189.42 L 242.4 187.61 L 244.56 185.79 L 246.72 183.98 L 248.88 182.16 L 251.04 180.35 L 253.2 178.53 L 255.36 176.72 L 257.52 174.9 L 259.68 173.08 L 261.84 171.27 L 264.0 169.46 L 266.16 167.65 L 268.32 165.84 L 270.48 164.04 L 272.64 162.24 L 274.8 160.44 L 276.96 158.65 L 279.12 156.86 L 281.28 155.07 L 283.44 153.29 L 285.6 151.52 L 287.76 149.75 L 289.92 147.99 L 292.08 146.24 L 294.24 144.49 L 296.4 142.75 L 298.56 141.02 L 300.72 139.29 L 302.88 137.58 L 305.04 135.87 L 307.2 134.18 L 309.36 132.49 L 311.52 130.81 L 313.68 129.15 L 315.84 127.49 L 318.0 125.85 L 320.16 124.22 L 322.32 122.6 L 324.48 120.99 L 326.64 119.39 L 328.8 117.81 L 330.96 116.24 L 333.12 114.69 L 335.28 113.15 L 337.44 111.62 L 339.6 110.11 L 341.76 108.62 L 343.92 107.14 L 346.08 105.67 L 348.24 104.23 L 350.4 102.79 L 352.56 101.38 L 354.72 99.98 L 356.88 98.6 L 359.04 97.24 L 361.2 95.9 L 363.36 94.57 L 365.52 93.26 L 367.68 91.98 L 369.84 90.71 L 372.0 89.46 L 374.16 88.23 L 376.32 87.02 L 378.48 85.83 L 380.64 84.66 L 382.8 83.52 L 384.96 82.39 L 387.12 81.29 L 389.28 80.21 L 391.44 79.15 L 393.6 78.11 L 395.76 77.09 L 397.92 76.1 L 400.08 75.13 L 402.24 74.18 L 404.4 73.26 L 406.56 72.36 L 408.72 71.48 L 410.88 70.63 L 413.04 69.8 L 415.2 69.0 L 417.36 68.22 L 419.52 67.46 L 421.68 66.74 L 423.84 66.03 L 426.0 65.35 L 428.16 64.7 L 430.32 64.07 L 432.48 63.47 L 434.64 62.89 L 436.8 62.34 L 438.96 61.81 L 441.12 61.32 L 443.28 60.84 L 445.44 60.4 L 447.6 59.98 L 449.76 59.58 L 451.92 59.22 L 454.08 58.88 L 456.24 58.57 L 458.4 58.28 L 460.56 58.02 L 462.72 57.79 L 464.88 57.59 L 467.04 57.41 L 469.2 57.26 L 471.36 57.14 L 473.52 57.04 L 475.68 56.97 L 477.84 56.93 L 480.0 56.92 L 482.16 56.93 L 484.32 56.97 L 486.48 57.04 L 488.64 57.14 L 490.8 57.26 L 492.96 57.41 L 495.12 57.59 L 497.28 57.79 L 499.44 58.02 L 501.6 58.28 L 503.76 58.57 L 505.92 58.88 L 508.08 59.22 L 510.24 59.58 L 512.4 59.98 L 514.56 60.4 L 516.72 60.84 L 518.88 61.32 L 521.04 61.81 L 523.2 62.34 L 525.36 62.89 L 527.52 63.47 L 529.68 64.07 L 531.84 64.7 L 534.0 65.35 L 536.16 66.03 L 538.32 66.74 L 540.48 67.46 L 542.64 68.22 L 544.8 69.0 L 546.96 69.8 L 549.12 70.63 L 551.28 71.48 L 553.44 72.36 L 555.6 73.26 L 557.76 74.18 L 559.92 75.13 L 562.08 76.1 L 564.24 77.09 L 566.4 78.11 L 568.56 79.15 L 570.72 80.21 L 572.88 81.29 L 575.04 82.39 L 577.2 83.52 L 579.36 84.66 L 581.52 85.83 L 583.68 87.02 L 585.84 88.23 L 588.0 89.46 L 590.16 90.71 L 592.32 91.98 L 594.48 93.26 L 596.64 94.57 L 598.8 95.9 L 600.96 97.24 L 603.12 98.6 L 605.28 99.98 L 607.44 101.38 L 609.6 102.79 L 611.76 104.23 L 613.92 105.67 L 616.08 107.14 L 618.24 108.62 L 620.4 110.11 L 622.56 111.62 L 624.72 113.15 L 626.88 114.69 L 629.04 116.24 L 631.2 117.81 L 633.36 119.39 L 635.52 120.99 L 637.68 122.6 L 639.84 124.22 L 642.0 125.85 L 644.16 127.49 L 646.32 129.15 L 648.48 130.81 L 650.64 132.49 L 652.8 134.18 L 654.96 135.87 L 657.12 137.58 L 659.28 139.29 L 661.44 141.02 L 663.6 142.75 L 665.76 144.49 L 667.92 146.24 L 670.08 147.99 L 672.24 149.75 L 674.4 151.52 L 676.56 153.29 L 678.72 155.07 L 680.88 156.86 L 683.04 158.65 L 685.2 160.44 L 687.36 162.24 L 689.52 164.04 L 691.68 165.84 L 693.84 167.65 L 696.0 169.46 L 698.16 171.27 L 700.32 173.08 L 702.48 174.9 L 704.64 176.72 L 706.8 178.53 L 708.96 180.35 L 711.12 182.16 L 713.28 183.98 L 715.44 185.79 L 717.6 187.61 L 719.76 189.42 L 721.92 191.22 L 724.08 193.03 L 726.24 194.83 L 728.4 196.63 L 730.56 198.43 L 732.72 200.22 L 734.88 202.01 L 737.04 203.79 L 739.2 205.56 L 741.36 207.34 L 743.52 209.1 L 745.68 210.86 L 747.84 212.61 L 750.0 214.36 L 752.16 216.09 L 754.32 217.82 L 756.48 219.54 L 758.64 221.25 L 760.8 222.96 L 762.96 224.65 L 765.12 226.34 L 767.28 228.01 L 769.44 229.67 L 771.6 231.33 L 773.76 232.97 L 775.92 234.6 L 778.08 236.22 L 780.24 237.83 L 782.4 239.42 L 784.56 241.01 L 786.72 242.58 L 788.88 244.13 L 791.04 245.68 L 793.2 247.2 L 795.36 248.72 L 797.52 250.22 L 799.68 251.71 L 801.84 253.18 L 804.0 254.63 L 806.16 256.07 L 808.32 257.5 L 810.48 258.9 L 812.64 260.29 L 814.8 261.67 L 816.96 263.03 L 819.12 264.37 L 821.28 265.69 L 823.44 267.0 L 825.6 268.28 L 827.76 269.55 L 829.92 270.81 L 832.08 272.04 L 834.24 273.25 L 836.4 274.45 L 838.56 275.62 L 840.72 276.78 L 842.88 277.92 L 845.04 279.03 L 847.2 280.13 L 849.36 281.21 L 851.52 282.27 L 853.68 283.3 L 855.84 284.32 L 858.0 285.31 L 860.16 286.29 L 862.32 287.24 L 864.48 288.17 L 866.64 289.08 L 868.8 289.97 L 870.96 290.84 L 873.12 291.68 L 875.28 292.51 L 877.44 293.31 L 879.6 294.09 L 881.76 294.85 L 883.92 295.58 L 886.08 296.29 L 888.24 296.98 L 890.4 297.65 L 892.56 298.3 L 894.72 298.92 L 896.88 299.52 L 899.04 300.1 L 901.2 300.65 L 903.36 301.18 L 905.52 301.69 L 907.68 302.18 L 909.84 302.64 L 912.0 303.08" fill="none" stroke="#1d4ed8" stroke-width="2.5" stroke-linecap="round" stroke-linejoin="round"/>
</svg>
