<svg xmlns="http://www.w3.org/2000/svg" viewBox="0 0 960 360" role="img" aria-label="Bessel I0(x)">
<rect width="100%" height="100%" fill="white"/>
<text x="48" y="28" font-family="system-ui, sans-serif" font-size="20" fill="#111827">Bessel I0(x)</text>
<line x1="480.0" y1="48" x2="480.0" y2="312" stroke="#808080" stroke-width="1"/>
<path d="M 48.0 61.69 L 50.16 65.68 L 52.32 69.62 L 54.48 73.49 L 56.64 77.3 L 58.8 81.06 L 60.96 84.75 L 63.12 88.39 L 65.28 91.96 L 67.44 95.49 L 69.6 98.96 L 71.76 102.37 L 73.92 105.73 L 76.08 109.04 L 78.24 112.29 L 80.4 115.5 L 82.56 118.65 L 84.72 121.76 L 86.88 124.81 L 89.04 127.82 L 91.2 130.78 L 93.36 133.7 L 95.52 136.57 L 97.68 139.39 L 99.84 142.17 L 102.0 144.91 L 104.16 147.6 L 106.32 150.25 L 108.48 152.87 L 110.64 155.44 L 112.8 157.96 L 114.96 160.45 L 117.12 162.91 L 119.28 165.32 L 121.44 167.69 L 123.6 170.03 L 125.76 172.33 L 127.92 174.6 L 130.08 176.83 L 132.24 179.02 L 134.4 181.18 L 136.56 183.31 L 138.72 185.4 L 140.88 187.46 L 143.04 189.49 L 145.2 191.48 L 147.36 193.45 L 149.52 195.38 L 151.68 197.29 L 153.84 199.16 L 156.0 201.0 L 158.16 202.82 L 160.32 204.61 L 162.48 206.37 L 164.64 208.1 L 166.8 209.8 L 168.96 211.48 L 171.12 213.13 L 173.28 214.75 L 175.44 216.35 L 177.6 217.93 L 179.76 219.48 L 181.92 221.0 L 184.08 222.5 L 186.24 223.98 L 188.4 225.43 L 190.56 226.86 L 192.72 228.27 L 194.88 229.65 L 197.04 231.02 L 199.2 232.36 L 201.36 233.68 L 203.52 234.98 L 205.68 236.26 L 207.84 237.52 L 210.0 238.76 L 212.16 239.97 L 214.32 241.17 L 216.48 242.35 L 218.64 243.52 L 220.8 244.66 L 222.96 245.78 L 225.12 246.89 L 227.28 247.98 L 229.44 249.05 L 231.6 250.1 L 233.76 251.14 L 235.92 252.16 L 238.08 253.16 L 240.24 254.15 L 242.4 255.12 L 244.56 256.07 L 246.72 257.01 L 248.88 257.93 L 251.04 258.84 L 253.2 259.74 L 255.36 260.61 L 257.52 261.48 L 259.68 262.33 L 261.84 263.17 L 264.0 263.99 L 266.16 264.8 L 268.32 265.59 L 270.48 266.37 L 272.64 267.14 L 274.8 267.9 L 276.96 268.64 L 279.12 269.37 L 281.28 270.09 L 283.44 270.79 L 285.6 271.48 L 287.76 272.16 L 289.92 272.83 L 292.08 273.49 L 294.24 274.14 L 296.4 274.77 L 298.56 275.4 L 300.72 276.01 L 302.88 276.61 L 305.04 277.2 L 307.2 277.78 L 309.36 278.35 L 311.52 278.91 L 313.68 279.46 L 315.84 280.0 L 318.0 280.53 L 320.16 281.05 L 322.32 281.56 L 324.48 282.06 L 326.64 282.55 L 328.8 283.03 L 330.96 283.51 L 333.12 283.97 L 335.28 284.42 L 337.44 284.87 L 339.6 285.31 L 341.76 285.73 L 343.92 286.15 L 346.08 286.56 L 348.24 286.97 L 350.4 287.36 L 352.56 287.75 L 354.72 288.13 L 356.88 288.5 L 359.04 288.86 L 361.2 289.21 L 363.36 289.56 L 365.52 289.9 L 367.68 290.23 L 369.84 290.55 L 372.0 290.87 L 374.16 291.17 L 376.32 291.48 L 378.48 291.77 L 380.64 292.06 L 382.8 292.33 L 384.96 292.61 L 387.12 292.87 L 389.28 293.13 L 391.44 293.38 L 393.6 293.63 L 395.76 293.87 L 397.92 294.1 L 400.08 294.32 L 402.24 294.54 L 404.4 294.75 L 406.56 294.96 L 408.72 295.16 L 410.88 295.35 L 413.04 295.53 L 415.2 295.71 L 417.36 295.89 L 419.52 296.05 L 421.68 296.21 L 423.84 296.37 L 426.0 296.52 L 428.16 296.66 L 430.32 296.8 L 432.48 296.93 L 434.64 297.05 L 436.8 297.17 L 438.96 297.28 L 441.12 297.39 L 443.28 297.49 L 445.44 297.58 L 447.6 297.67 L 449.76 297.75 L 451.92 297.83 L 454.08 297.9 L 456.24 297.97 L 458.4 298.03 L 460.56 298.08 L 462.72 298.13 L 464.88 298.17 L 467.04 298.21 L 469.2 298.24 L 471.36 298.27 L 473.52 298.29 L 475.68 298.3 L 477.84 298.31 L 480.0 298.31 L 482.16 298.31 L 484.32 298.3 L 486.48 298.29 L 488.64 298.27 L 490.8 298.24 L 492.96 298.21 L 495.12 298.17 L 497.28 298.13 L 499.44 298.08 L 501.6 298.03 L 503.76 297.97 L 505.92 297.9 L 508.08 297.83 L 510.24 297.75 L 512.4 297.67 L 514.56 297.58 L 516.72 297.49 L 518.88 297.39 L 521.04 297.28 L 523.2 297.17 L 525.36 297.05 L 527.52 296.93 L 529.68 296.8 L 531.84 296.66 L 534.0 296.52 L 536.16 296.37 L 538.32 296.21 L 540.48 296.05 L 542.64 295.89 L 544.8 295.71 L 546.96 295.53 L 549.12 295.35 L 551.28 295.16 L 553.44 294.96 L 555.6 294.75 L 557.76 294.54 L 559.92 294.32 L 562.08 294.1 L 564.24 293.87 L 566.4 293.63 L 568.56 293.38 L 570.72 293.13 L 572.88 292.87 L 575.04 292.61 L 577.2 292.33 L 579.36 292.06 L 581.52 291.77 L 583.68 291.48 L 585.84 291.17 L 588.0 290.87 L 590.16 290.55 L 592.32 290.23 L 594.48 289.9 L 596.64 289.56 L 598.8 289.21 L 600.96 288.86 L 603.12 288.5 L 605.28 288.13 L 607.44 287.75 L 609.6 287.36 L 611.76 286.97 L 613.92 286.56 L 616.08 286.15 L 618.24 285.73 L 620.4 285.31 L 622.56 284.87 L 624.72 284.42 L 626.88 283.97 L 629.04 283.51 L 631.2 283.03 L 633.36 282.55 L 635.52 282.06 L 637.68 281.56 L 639.84 281.05 L 642.0 280.53 L 644.16 280.0 L 646.32 279.46 L 648.48 278.91 L 650.64 278.35 L 652.8 277.78 L 654.96 277.2 L 657.12 276.61 L 659.28 276.01 L 661.44 275.4 L 663.6 274.77 L 665.76 274.14 L 667.92 273.49 L 670.08 272.83 L 672.24 272.16 L 674.4 271.48 L 676.56 270.79 L 678.72 270.09 L 680.88 269.37 L 683.04 268.64 L 685.2 267.9 L 687.36 267.14 L 689.52 266.37 L 691.68 265.59 L 693.84 264.8 L 696.0 263.99 L 698.16 263.17 L 700.32 262.33 L 702.48 261.48 L 704.64 260.61 L 706.8 259.74 L 708.96 258.84 L 711.12 257.93 L 713.28 257.01 L 715.44 256.07 L 717.6 255.12 L 719.76 254.15 L 721.92 253.16 L 724.08 252.16 L 726.24 251.14 L 728.4 250.1 L 730.56 249.05 L 732.72 247.98 L 734.88 246.89 L 737.04 245.78 L 739.2 244.66 L 741.36 243.52 L 743.52 242.35 L 745.68 241.17 L 747.84 239.97 L 750.0 238.76 L 752.16 237.52 L 754.32 236.26 L 756.48 234.98 L 758.64 233.68 L 760.8 232.36 L 762.96 231.02 L 765.12 229.65 L 767.28 228.27 L 769.44 226.86 L 771.6 225.43 L 773.76 223.98 L 775.92 222.5 L 778.08 221.0 L 780.24 219.48 L 782.4 217.93 L 784.56 216.35 L 786.72 214.75 L 788.88 213.13 L 791.04 211.48 L 793.2 209.8 L 795.36 208.1 L 797.52 206.37 L 799.68 204.61 L 801.84 202.82 L 804.0 201.0 L 806.16 199.16 L 808.32 197.29 L 810.48 195.38 L 812.64 193.45 L 814.8 191.48 L 816.96 189.49 L 819.12 187.46 L 821.28 185.4 L 823.44 183.31 L 825.6 181.18 L 827.76 179.02 L 829.92 176.83 L 832.08 174.6 L 834.24 172.33 L 836.4 170.03 L 838.56 167.69 L 840.72 165.32 L 842.88 162.91 L 845.04 160.45 L 847.2 157.96 L 849.36 155.44 L 851.52 152.87 L 853.68 150.25 L 855.84 147.6 L 858.0 144.91 L 860.16 142.17 L 862.32 139.39 L 864.48 136.57 L 866.64 133.7 L 868.8 130.78 L 870.96 127.82 L 873.12 124.81 L 875.28 121.76 L 877.44 118.65 L 879.6 115.5 L 881.76 112.29 L 883.92 109.04 L 886.08 105.73 L 888.24 102.37 L 890.4 98.96 L 892.56 95.49 L 894.72 91.96 L 896.88 88.39 L 899.04 84.75 L 901.2 81.06 L 903.36 77.3 L 905.52 73.49 L 907.68 69.62 L 909.84 65.68 L 912.0 61.69" fill="none" stroke="#0f766e" stroke-width="2.5" stroke-linecap="round" stroke-linejoin="round"/>
</svg>
