<svg xmlns="http://www.w3.org/2000/svg" viewBox="0 0 960 360" role="img" aria-label="Dawson integral F(x)">
<rect width="100%" height="100%" fill="white"/>
<text x="48" y="28" font-family="system-ui, sans-serif" font-size="20" fill="#111827">Dawson integral F(x)</text>
<line x1="48" y1="180.0" x2="912" y2="180.0" stroke="#808080" stroke-width="1"/>
<line x1="480.0" y1="48" x2="480.0" y2="312" stroke="#808080" stroke-width="1"/>
<path d="M 48.0 213.42 L 50.16 213.6 L 52.32 213.79 L 54.48 213.98 L 56.64 214.17 L 58.8 214.37 L 60.96 214.57 L 63.12 214.77 L 65.28 214.97 L 67.44 215.18 L 69.6 215.38 L 71.76 215.6 L 73.92 215.81 L 76.08 216.03 L 78.24 216.24 L 80.4 216.47 L 82.56 216.69 L 84.72 216.92 L 86.88 217.15 L 89.04 217.39 L 91.2 217.63 L 93.36 217.87 L 95.52 218.11 L 97.68 218.36 L 99.84 218.61 L 102.0 218.87 L 104.16 219.13 L 106.32 219.39 L 108.48 219.66 L 110.64 219.93 L 112.8 220.21 L 114.96 220.49 L 117.12 220.77 L 119.28 221.06 L 121.44 221.36 L 123.6 221.66 L 125.76 221.96 L 127.92 222.27 L 130.08 222.58 L 132.24 222.9 L 134.4 223.23 L 136.56 223.56 L 138.72 223.89 L 140.88 224.24 L 143.04 224.59 L 145.2 224.94 L 147.36 225.3 L 149.52 225.67 L 151.68 226.04 L 153.84 226.43 L 156.0 226.82 L 158.16 227.21 L 160.32 227.62 L 162.48 228.03 L 164.64 228.45 L 166.8 228.88 L 168.96 229.31 L 171.12 229.76 L 173.28 230.21 L 175.44 230.68 L 177.6 231.15 L 179.76 231.63 L 181.92 232.12 L 184.08 232.63 L 186.24 233.14 L 188.4 233.66 L 190.56 234.2 L 192.72 234.74 L 194.88 235.3 L 197.04 235.87 L 199.2 236.45 L 201.36 237.04 L 203.52 237.64 L 205.68 238.26 L 207.84 238.89 L 210.0 239.54 L 212.16 240.19 L 214.32 240.86 L 216.48 241.55 L 218.64 242.24 L 220.8 242.96 L 222.96 243.68 L 225.12 244.42 L 227.28 245.18 L 229.44 245.95 L 231.6 246.73 L 233.76 247.53 L 235.92 248.34 L 238.08 249.17 L 240.24 250.02 L 242.4 250.88 L 244.56 251.75 L 246.72 252.64 L 248.88 253.55 L 251.04 254.47 L 253.2 255.4 L 255.36 256.35 L 257.52 257.31 L 259.68 258.28 L 261.84 259.27 L 264.0 260.28 L 266.16 261.29 L 268.32 262.32 L 270.48 263.35 L 272.64 264.4 L 274.8 265.46 L 276.96 266.53 L 279.12 267.61 L 281.28 268.7 L 283.44 269.79 L 285.6 270.89 L 287.76 271.99 L 289.92 273.1 L 292.08 274.21 L 294.24 275.33 L 296.4 276.44 L 298.56 277.55 L 300.72 278.66 L 302.88 279.76 L 305.04 280.86 L 307.2 281.95 L 309.36 283.04 L 311.52 284.11 L 313.68 285.17 L 315.84 286.21 L 318.0 287.24 L 320.16 288.25 L 322.32 289.23 L 324.48 290.2 L 326.64 291.13 L 328.8 292.05 L 330.96 292.93 L 333.12 293.77 L 335.28 294.58 L 337.44 295.36 L 339.6 296.09 L 341.76 296.79 L 343.92 297.43 L 346.08 298.03 L 348.24 298.58 L 350.4 299.07 L 352.56 299.51 L 354.72 299.89 L 356.88 300.21 L 359.04 300.47 L 361.2 300.66 L 363.36 300.78 L 365.52 300.83 L 367.68 300.81 L 369.84 300.71 L 372.0 300.53 L 374.16 300.28 L 376.32 299.94 L 378.48 299.51 L 380.64 299.0 L 382.8 298.4 L 384.96 297.71 L 387.12 296.93 L 389.28 296.05 L 391.44 295.08 L 393.6 294.01 L 395.76 292.85 L 397.92 291.59 L 400.08 290.23 L 402.24 288.77 L 404.4 287.21 L 406.56 285.55 L 408.72 283.79 L 410.88 281.93 L 413.04 279.97 L 415.2 277.91 L 417.36 275.75 L 419.52 273.49 L 421.68 271.14 L 423.84 268.69 L 426.0 266.15 L 428.16 263.51 L 430.32 260.78 L 432.48 257.97 L 434.64 255.07 L 436.8 252.09 L 438.96 249.02 L 441.12 245.88 L 443.28 242.66 L 445.44 239.37 L 447.6 236.01 L 449.76 232.58 L 451.92 229.09 L 454.08 225.55 L 456.24 221.95 L 458.4 218.3 L 460.56 214.6 L 462.72 210.86 L 464.88 207.09 L 467.04 203.28 L 469.2 199.44 L 471.36 195.58 L 473.52 191.7 L 475.68 187.81 L 477.84 183.91 L 480.0 180.0 L 482.16 176.09 L 484.32 172.19 L 486.48 168.3 L 488.64 164.42 L 490.8 160.56 L 492.96 156.72 L 495.12 152.91 L 497.28 149.14 L 499.44 145.4 L 501.6 141.7 L 503.76 138.05 L 505.92 134.45 L 508.08 130.91 L 510.24 127.42 L 512.4 123.99 L 514.56 120.63 L 516.72 117.34 L 518.88 114.12 L 521.04 110.98 L 523.2 107.91 L 525.36 104.93 L 527.52 102.03 L 529.68 99.22 L 531.84 96.49 L 534.0 93.85 L 536.16 91.31 L 538.32 88.86 L 540.48 86.51 L 542.64 84.25 L 544.8 82.09 L 546.96 80.03 L 549.12 78.07 L 551.28 76.21 L 553.44 74.45 L 555.6 72.79 L 557.76 71.23 L 559.92 69.77 L 562.08 68.41 L 564.24 67.15 L 566.4 65.99 L 568.56 64.92 L 570.72 63.95 L 572.88 63.07 L 575.04 62.29 L 577.2 61.6 L 579.36 61.0 L 581.52 60.49 L 583.68 60.06 L 585.84 59.72 L 588.0 59.47 L 590.16 59.29 L 592.32 59.19 L 594.48 59.17 L 596.64 59.22 L 598.8 59.34 L 600.96 59.53 L 603.12 59.79 L 605.28 60.11 L 607.44 60.49 L 609.6 60.93 L 611.76 61.42 L 613.92 61.97 L 616.08 62.57 L 618.24 63.21 L 620.4 63.91 L 622.56 64.64 L 624.72 65.42 L 626.88 66.23 L 629.04 67.07 L 631.2 67.95 L 633.36 68.87 L 635.52 69.8 L 637.68 70.77 L 639.84 71.75 L 642.0 72.76 L 644.16 73.79 L 646.32 74.83 L 648.48 75.89 L 650.64 76.96 L 652.8 78.05 L 654.96 79.14 L 657.12 80.24 L 659.28 81.34 L 661.44 82.45 L 663.6 83.56 L 665.76 84.67 L 667.92 85.79 L 670.08 86.9 L 672.24 88.01 L 674.4 89.11 L 676.56 90.21 L 678.72 91.3 L 680.88 92.39 L 683.04 93.47 L 685.2 94.54 L 687.36 95.6 L 689.52 96.65 L 691.68 97.68 L 693.84 98.71 L 696.0 99.72 L 698.16 100.73 L 700.32 101.72 L 702.48 102.69 L 704.64 103.65 L 706.8 104.6 L 708.96 105.53 L 711.12 106.45 L 713.28 107.36 L 715.44 108.25 L 717.6 109.12 L 719.76 109.98 L 721.92 110.83 L 724.08 111.66 L 726.24 112.47 L 728.4 113.27 L 730.56 114.05 L 732.72 114.82 L 734.88 115.58 L 737.04 116.32 L 739.2 117.04 L 741.36 117.76 L 743.52 118.45 L 745.68 119.14 L 747.84 119.81 L 750.0 120.46 L 752.16 121.11 L 754.32 121.74 L 756.48 122.36 L 758.64 122.96 L 760.8 123.55 L 762.96 124.13 L 765.12 124.7 L 767.28 125.26 L 769.44 125.8 L 771.6 126.34 L 773.76 126.86 L 775.92 127.37 L 778.08 127.88 L 780.24 128.37 L 782.4 128.85 L 784.56 129.32 L 786.72 129.79 L 788.88 130.24 L 791.04 130.69 L 793.2 131.12 L 795.36 131.55 L 797.52 131.97 L 799.68 132.38 L 801.84 132.79 L 804.0 133.18 L 806.16 133.57 L 808.32 133.96 L 810.48 134.33 L 812.64 134.7 L 814.8 135.06 L 816.96 135.41 L 819.12 135.76 L 821.28 136.11 L 823.44 136.44 L 825.6 136.77 L 827.76 137.1 L 829.92 137.42 L 832.08 137.73 L 834.24 138.04 L 836.4 138.34 L 838.56 138.64 L 840.72 138.94 L 842.88 139.23 L 845.04 139.51 L 847.2 139.79 L 849.36 140.07 L 851.52 140.34 L 853.68 140.61 L 855.84 140.87 L 858.0 141.13 L 860.16 141.39 L 862.32 141.64 L 864.48 141.89 L 866.64 142.13 L 868.8 142.37 L 870.96 142.61 L 873.12 142.85 L 875.28 143.08 L 877.44 143.31 L 879.6 143.53 L 881.76 143.76 L 883.92 143.97 L 886.08 144.19 L 888.24 144.4 L 890.4 144.62 L 892.56 144.82 L 894.72 145.03 L 896.88 145.23 L 899.04 145.43 L 901.2 145.63 L 903.36 145.83 L 905.52 146.02 L 907.68 146.21 L 909.84 146.4 L 912.0 146.58" fill="none" stroke="#047857" stroke-width="2.5" stroke-linecap="round" stroke-linejoin="round"/>
</svg>
